<svg width="40" height="40" viewBox="0 0 40 40" fill="none" xmlns="http://www.w3.org/2000/svg">
<path d="M6.66666 9.99999C6.66666 9.55797 6.84225 9.13404 7.15481 8.82148C7.46737 8.50892 7.8913 8.33333 8.33332 8.33333H31.6667C32.1087 8.33333 32.5326 8.50892 32.8452 8.82148C33.1577 9.13404 33.3333 9.55797 33.3333 9.99999C33.3333 10.442 33.1577 10.8659 32.8452 11.1785C32.5326 11.4911 32.1087 11.6667 31.6667 11.6667H8.33332C7.8913 11.6667 7.46737 11.4911 7.15481 11.1785C6.84225 10.8659 6.66666 10.442 6.66666 9.99999Z" fill="white"/>
<path d="M6.66666 30C6.66666 29.558 6.84225 29.134 7.15481 28.8215C7.46737 28.5089 7.8913 28.3333 8.33332 28.3333H31.6667C32.1087 28.3333 32.5326 28.5089 32.8452 28.8215C33.1577 29.134 33.3333 29.558 33.3333 30C33.3333 30.442 33.1577 30.8659 32.8452 31.1785C32.5326 31.4911 32.1087 31.6667 31.6667 31.6667H8.33332C7.8913 31.6667 7.46737 31.4911 7.15481 31.1785C6.84225 30.8659 6.66666 30.442 6.66666 30Z" fill="white"/>
<path d="M18.3333 18.3333C17.8913 18.3333 17.4674 18.5089 17.1548 18.8215C16.8423 19.134 16.6667 19.558 16.6667 20C16.6667 20.442 16.8423 20.8659 17.1548 21.1785C17.4674 21.4911 17.8913 21.6667 18.3333 21.6667H31.6667C32.1087 21.6667 32.5326 21.4911 32.8452 21.1785C33.1577 20.8659 33.3333 20.442 33.3333 20C33.3333 19.558 33.1577 19.134 32.8452 18.8215C32.5326 18.5089 32.1087 18.3333 31.6667 18.3333H18.3333Z" fill="white"/>
</svg>
